<svg width="24" height="24" viewBox="0 0 24 24" fill="none" xmlns="http://www.w3.org/2000/svg"><path d="M14 2H6a2 2 0 0 0-2 2v16a2 2 0 0 0 2 2h12a2 2 0 0 0 2-2V8Z" stroke="#003876" stroke-width="1.5" stroke-linecap="round" stroke-linejoin="round"/><path d="M14 2v6h6" stroke="#003876" stroke-width="1.5" stroke-linecap="round" stroke-linejoin="round"/><path d="M8 13h1.5a1 1 0 0 1 0 2H8v-2ZM8 15v2M13 13v4M13 13h1a1 1 0 0 1 1 1v2a1 1 0 0 1-1 1h-1" stroke="#003876" stroke-width="1.3" stroke-linecap="round" stroke-linejoin="round"/></svg>